<svg xmlns="http://www.w3.org/2000/svg" xmlns:xlink="http://www.w3.org/1999/xlink" width="500" zoomAndPan="magnify" viewBox="0 0 375 374.999991" height="500" preserveAspectRatio="xMidYMid meet" version="1.0"><defs><clipPath id="id1"><path d="M 58.140625 90 L 327 90 L 327 258 L 58.140625 258 Z M 58.140625 90 " clip-rule="nonzero"/></clipPath></defs><path fill="#f69cab" d="M 118.90625 99.253906 C 119.417969 99.199219 119.914062 99.082031 120.398438 98.902344 C 121.378906 98.601562 122.144531 98.019531 122.703125 97.160156 C 123.03125 96.566406 123.15625 95.933594 123.078125 95.261719 C 123.070312 95.078125 123.003906 94.921875 122.878906 94.792969 C 122.75 94.660156 122.59375 94.589844 122.410156 94.585938 C 122.078125 94.585938 121.6875 94.886719 121.730469 95.261719 C 121.742188 95.398438 121.742188 95.53125 121.730469 95.664062 L 121.730469 95.929688 C 121.730469 96.054688 121.730469 95.765625 121.730469 95.898438 C 121.714844 95.996094 121.691406 96.097656 121.660156 96.195312 L 121.605469 96.355469 C 121.570312 96.453125 121.605469 96.289062 121.636719 96.28125 L 121.59375 96.371094 C 121.546875 96.46875 121.496094 96.558594 121.433594 96.644531 C 121.433594 96.675781 121.3125 96.804688 121.394531 96.703125 C 121.476562 96.597656 121.347656 96.757812 121.324219 96.777344 C 121.265625 96.847656 121.199219 96.914062 121.132812 96.976562 L 121.011719 97.078125 C 120.890625 97.1875 121.140625 96.984375 121.011719 97.078125 C 120.851562 97.195312 120.683594 97.300781 120.507812 97.390625 L 120.253906 97.511719 C 120.199219 97.511719 120.046875 97.589844 120.253906 97.511719 L 120.105469 97.566406 C 119.8125 97.683594 119.507812 97.773438 119.199219 97.835938 L 118.867188 97.902344 L 118.945312 97.902344 L 118.910156 97.902344 C 118.710938 97.886719 118.539062 97.945312 118.394531 98.078125 C 118.246094 98.214844 118.171875 98.378906 118.171875 98.578125 C 118.171875 98.777344 118.246094 98.945312 118.394531 99.078125 C 118.539062 99.214844 118.710938 99.273438 118.910156 99.253906 Z M 118.90625 99.253906 " fill-opacity="1" fill-rule="nonzero"/><path fill="#f69cab" d="M 118.648438 99.488281 C 119.816406 100.226562 121.5 100.710938 122.824219 100.171875 C 123.484375 99.894531 124 99.449219 124.371094 98.835938 C 124.480469 98.671875 124.511719 98.496094 124.464844 98.308594 C 124.421875 98.117188 124.316406 97.972656 124.148438 97.875 C 123.980469 97.777344 123.804688 97.753906 123.617188 97.808594 C 123.429688 97.863281 123.292969 97.976562 123.203125 98.152344 C 123.160156 98.230469 123.109375 98.300781 123.054688 98.371094 C 123.132812 98.269531 122.984375 98.457031 122.964844 98.472656 L 122.800781 98.636719 L 122.710938 98.707031 C 122.777344 98.660156 122.777344 98.660156 122.710938 98.707031 L 122.394531 98.894531 C 122.328125 98.925781 122.332031 98.925781 122.394531 98.894531 L 122.292969 98.929688 L 122.101562 98.988281 L 121.90625 99.035156 L 121.808594 99.035156 C 121.691406 99.035156 121.578125 99.035156 121.460938 99.035156 L 121.269531 99.035156 C 121.226562 99.035156 121.003906 99 121.203125 99.035156 C 121.082031 99.035156 120.964844 98.996094 120.851562 98.96875 C 120.621094 98.917969 120.394531 98.851562 120.171875 98.769531 L 120.019531 98.707031 C 119.972656 98.707031 119.847656 98.660156 120.019531 98.707031 C 119.929688 98.675781 119.84375 98.625 119.753906 98.585938 C 119.664062 98.550781 119.417969 98.421875 119.257812 98.324219 C 119.097656 98.226562 118.925781 98.203125 118.746094 98.25 C 118.566406 98.296875 118.429688 98.402344 118.335938 98.5625 C 118.238281 98.722656 118.214844 98.894531 118.261719 99.074219 C 118.308594 99.253906 118.414062 99.390625 118.574219 99.488281 Z M 118.648438 99.488281 " fill-opacity="1" fill-rule="nonzero"/><path fill="#f69cab" d="M 72.152344 97.902344 C 72.011719 97.902344 72.394531 97.9375 72.21875 97.902344 L 71.953125 97.859375 C 71.65625 97.796875 71.367188 97.714844 71.082031 97.617188 L 70.835938 97.523438 C 70.742188 97.488281 70.917969 97.5625 70.917969 97.554688 L 70.851562 97.527344 L 70.703125 97.472656 C 70.523438 97.386719 70.355469 97.289062 70.191406 97.179688 L 70.066406 97.097656 L 69.996094 97.042969 C 69.996094 97.042969 70.132812 97.160156 70.0625 97.09375 C 69.980469 97.027344 69.90625 96.957031 69.832031 96.882812 C 69.761719 96.816406 69.699219 96.738281 69.632812 96.667969 C 69.566406 96.597656 69.738281 96.816406 69.671875 96.71875 L 69.632812 96.667969 L 69.515625 96.507812 L 69.457031 96.371094 L 69.421875 96.300781 C 69.421875 96.261719 69.484375 96.46875 69.421875 96.300781 C 69.386719 96.1875 69.351562 96.074219 69.324219 95.957031 L 69.324219 95.875 C 69.296875 95.742188 69.324219 96.046875 69.324219 95.90625 L 69.324219 95.703125 C 69.3125 95.550781 69.3125 95.398438 69.324219 95.246094 C 69.324219 95.058594 69.257812 94.898438 69.128906 94.769531 C 68.996094 94.636719 68.839844 94.570312 68.652344 94.566406 C 68.464844 94.574219 68.304688 94.644531 68.171875 94.78125 C 68.042969 94.917969 67.980469 95.078125 67.980469 95.269531 C 67.90625 95.882812 68.007812 96.464844 68.277344 97.019531 C 68.523438 97.492188 68.863281 97.882812 69.296875 98.191406 C 69.960938 98.667969 70.695312 98.988281 71.5 99.144531 C 71.722656 99.191406 71.945312 99.230469 72.167969 99.253906 C 72.351562 99.25 72.503906 99.179688 72.632812 99.046875 C 72.757812 98.917969 72.824219 98.757812 72.824219 98.578125 C 72.820312 98.390625 72.75 98.234375 72.621094 98.105469 C 72.492188 97.976562 72.335938 97.90625 72.152344 97.902344 Z M 72.152344 97.902344 " fill-opacity="1" fill-rule="nonzero"/><path fill="#f69cab" d="M 71.722656 98.324219 C 71.558594 98.417969 71.390625 98.507812 71.21875 98.585938 C 71.136719 98.625 71.050781 98.675781 70.960938 98.707031 L 70.816406 98.757812 C 70.597656 98.839844 70.375 98.90625 70.144531 98.957031 C 70.03125 98.957031 69.910156 99.007812 69.792969 99.023438 C 69.992188 99.023438 69.765625 99.023438 69.726562 99.023438 L 69.527344 99.023438 C 69.414062 99.023438 69.296875 99.023438 69.179688 99.023438 L 69.082031 99.023438 L 69.113281 99.023438 L 68.921875 98.980469 L 68.722656 98.917969 L 68.628906 98.886719 C 68.714844 98.917969 68.71875 98.917969 68.628906 98.886719 L 68.3125 98.699219 C 68.246094 98.652344 68.25 98.652344 68.3125 98.699219 L 68.226562 98.625 C 68.167969 98.570312 68.113281 98.515625 68.0625 98.460938 C 68.0625 98.460938 67.890625 98.257812 67.96875 98.363281 C 67.917969 98.289062 67.871094 98.21875 67.824219 98.140625 C 67.730469 97.984375 67.589844 97.882812 67.410156 97.835938 C 67.234375 97.789062 67.0625 97.808594 66.898438 97.898438 C 66.742188 97.992188 66.636719 98.132812 66.589844 98.3125 C 66.542969 98.492188 66.566406 98.664062 66.65625 98.824219 C 66.949219 99.308594 67.339844 99.6875 67.828125 99.964844 C 68.320312 100.242188 68.847656 100.382812 69.414062 100.378906 C 70.289062 100.351562 71.113281 100.136719 71.886719 99.730469 C 72.046875 99.65625 72.203125 99.570312 72.355469 99.476562 C 72.515625 99.390625 72.625 99.257812 72.679688 99.085938 C 72.738281 98.910156 72.726562 98.742188 72.648438 98.578125 C 72.554688 98.410156 72.417969 98.304688 72.238281 98.253906 C 72.054688 98.207031 71.882812 98.226562 71.722656 98.324219 Z M 71.722656 98.324219 " fill-opacity="1" fill-rule="nonzero"/><path fill="#f69cab" d="M 136.773438 169.710938 C 136.617188 169.609375 136.457031 169.515625 136.292969 169.429688 C 136.453125 169.519531 136.609375 169.613281 136.757812 169.707031 Z M 136.773438 169.710938 " fill-opacity="1" fill-rule="nonzero"/><g clip-path="url(#id1)"><path fill="#f69cab" d="M 326.4375 201.886719 C 325.746094 199.378906 323.808594 196.660156 321.476562 195.425781 C 316.222656 192.667969 309.824219 194.132812 306.6875 199.285156 C 306.054688 200.332031 305.363281 201.335938 304.640625 202.328125 C 302.824219 204.53125 300.828125 206.554688 298.644531 208.394531 C 296.878906 209.671875 295.015625 210.789062 293.058594 211.746094 C 291.296875 212.40625 289.488281 212.910156 287.636719 213.253906 C 285.839844 213.375 284.046875 213.359375 282.253906 213.203125 C 279.222656 212.601562 276.277344 211.722656 273.410156 210.566406 C 265.097656 206.84375 257.566406 201.652344 249.824219 196.890625 C 241.460938 191.769531 232.5625 187.054688 223 184.601562 C 217.628906 183.265625 212.175781 182.613281 206.640625 182.636719 C 201.109375 182.664062 195.664062 183.367188 190.304688 184.75 C 180.503906 187.214844 171.152344 191.621094 162.117188 196.070312 C 152.75 200.679688 143.578125 205.6875 134.019531 209.828125 C 129.332031 211.839844 124.480469 213.324219 119.472656 214.285156 C 118.082031 214.410156 116.691406 214.429688 115.296875 214.351562 C 114.777344 214.238281 114.273438 214.101562 113.765625 213.949219 C 113.367188 213.734375 112.984375 213.5 112.601562 213.257812 C 112.339844 213.003906 112.050781 212.738281 111.824219 212.46875 C 111.300781 211.640625 110.828125 210.785156 110.410156 209.898438 C 109.402344 207.0625 108.679688 204.15625 108.246094 201.175781 C 107.085938 191.085938 107.695312 180.824219 108.984375 170.757812 C 109.886719 164.246094 111.058594 157.777344 112.496094 151.359375 C 113.121094 148.5625 113.683594 145.652344 114.519531 142.878906 C 114.679688 142.496094 114.804688 142.101562 114.898438 141.699219 C 115.082031 141.144531 115.199219 140.574219 115.253906 139.996094 C 125.609375 101.394531 113.835938 91.136719 98.355469 90.253906 C 83.191406 89.410156 65.789062 107.207031 62.90625 127.839844 C 62.820312 128.105469 62.753906 128.371094 62.703125 128.640625 C 60.277344 141.855469 58.894531 155.179688 58.546875 168.609375 C 58.257812 176.816406 58.523438 185.007812 59.339844 193.179688 C 60.289062 202.136719 61.75 211.109375 64.851562 219.601562 C 68.011719 228.289062 72.480469 236.613281 79.175781 243.136719 C 82.046875 245.929688 85.207031 248.34375 88.660156 250.378906 C 92.113281 252.410156 95.757812 254.003906 99.59375 255.15625 C 117.226562 260.4375 135.328125 254.335938 150.917969 246.074219 C 165.476562 238.355469 178.664062 228.25 193.339844 220.773438 C 194.839844 220.011719 196.363281 219.296875 197.898438 218.613281 C 201.03125 217.371094 204.253906 216.453125 207.570312 215.855469 C 210.269531 215.605469 212.96875 215.605469 215.664062 215.855469 C 220.121094 216.664062 224.4375 217.941406 228.617188 219.683594 C 241.25 225.195312 253.058594 232.71875 266.429688 236.492188 C 272.625 238.234375 279.296875 239.324219 285.714844 238.664062 C 289.773438 238.242188 293.746094 237.558594 297.542969 236.058594 C 301.375 234.625 304.957031 232.714844 308.28125 230.324219 C 315.371094 225.03125 321.472656 218.25 325.359375 210.230469 C 326.632812 207.574219 327.238281 204.808594 326.4375 201.886719 Z M 326.4375 201.886719 " fill-opacity="1" fill-rule="nonzero"/></g><path fill="#ffffff" d="M 98.058594 107.191406 C 98.058594 113.941406 102.546875 116.96875 109.292969 116.96875 C 116.035156 116.96875 121.5 113.464844 121.5 106.699219 C 121.5 105.898438 121.421875 105.101562 121.265625 104.316406 C 121.109375 103.527344 120.878906 102.765625 120.570312 102.023438 C 120.265625 101.28125 119.886719 100.578125 119.441406 99.910156 C 118.996094 99.242188 118.492188 98.625 117.925781 98.058594 C 117.359375 97.492188 116.742188 96.984375 116.074219 96.539062 C 115.40625 96.09375 114.703125 95.714844 113.964844 95.410156 C 113.222656 95.101562 112.460938 94.871094 111.671875 94.714844 C 110.886719 94.558594 110.09375 94.480469 109.292969 94.480469 C 102.574219 94.480469 98.058594 100.441406 98.058594 107.191406 Z M 98.058594 107.191406 " fill-opacity="1" fill-rule="nonzero"/><path fill="#f69cab" d="M 97.378906 107.191406 C 97.378906 109.570312 97.929688 111.953125 99.449219 113.851562 C 100.171875 114.695312 101.011719 115.402344 101.964844 115.96875 C 102.921875 116.535156 103.945312 116.933594 105.03125 117.160156 C 109.722656 118.261719 115.601562 117.628906 119.191406 114.136719 C 122.972656 110.472656 122.9375 104.324219 120.292969 100.003906 C 119.953125 99.445312 119.570312 98.914062 119.148438 98.414062 C 118.726562 97.910156 118.265625 97.445312 117.773438 97.011719 C 117.28125 96.582031 116.757812 96.1875 116.203125 95.835938 C 115.648438 95.484375 115.074219 95.179688 114.472656 94.914062 C 113.875 94.652344 113.257812 94.433594 112.625 94.265625 C 111.988281 94.09375 111.347656 93.972656 110.695312 93.902344 C 110.042969 93.832031 109.390625 93.808594 108.738281 93.839844 C 108.082031 93.867188 107.433594 93.945312 106.789062 94.070312 C 100.800781 95.390625 97.421875 101.382812 97.378906 107.191406 C 97.394531 107.363281 97.46875 107.511719 97.597656 107.628906 C 97.726562 107.746094 97.878906 107.808594 98.054688 107.808594 C 98.230469 107.808594 98.382812 107.746094 98.511719 107.628906 C 98.640625 107.511719 98.714844 107.363281 98.730469 107.191406 C 98.761719 102.578125 101.03125 97.742188 105.472656 95.898438 C 109.914062 94.050781 115.160156 95.730469 118.144531 99.328125 C 121.042969 102.789062 121.898438 108.375 119.121094 112.160156 C 116.429688 115.832031 111.273438 116.65625 107.039062 116.167969 C 104.832031 115.914062 102.601562 115.1875 101.011719 113.601562 C 99.300781 111.90625 98.71875 109.535156 98.703125 107.191406 C 98.667969 107.035156 98.585938 106.910156 98.464844 106.808594 C 98.339844 106.710938 98.199219 106.660156 98.039062 106.660156 C 97.882812 106.660156 97.742188 106.710938 97.617188 106.808594 C 97.492188 106.910156 97.414062 107.035156 97.378906 107.191406 Z M 97.378906 107.191406 " fill-opacity="1" fill-rule="nonzero"/><path fill="#000000" d="M 111.339844 115.121094 C 110.820312 115.121094 110.300781 115.070312 109.789062 114.96875 C 109.277344 114.867188 108.78125 114.714844 108.296875 114.515625 C 107.816406 114.316406 107.355469 114.070312 106.921875 113.777344 C 106.488281 113.488281 106.085938 113.15625 105.71875 112.789062 C 105.347656 112.417969 105.019531 112.015625 104.730469 111.582031 C 104.441406 111.144531 104.195312 110.6875 103.996094 110.203125 C 103.796875 109.722656 103.648438 109.222656 103.546875 108.710938 C 103.445312 108.195312 103.394531 107.679688 103.394531 107.15625 L 103.394531 105.804688 C 103.382812 105.273438 103.421875 104.75 103.511719 104.226562 C 103.605469 103.703125 103.746094 103.195312 103.9375 102.699219 C 104.132812 102.203125 104.371094 101.734375 104.660156 101.289062 C 104.949219 100.84375 105.277344 100.429688 105.648438 100.046875 C 106.015625 99.667969 106.421875 99.328125 106.859375 99.027344 C 107.296875 98.730469 107.761719 98.476562 108.25 98.269531 C 108.738281 98.0625 109.242188 97.90625 109.761719 97.804688 C 110.28125 97.699219 110.808594 97.644531 111.339844 97.644531 C 111.867188 97.644531 112.394531 97.699219 112.914062 97.804688 C 113.433594 97.90625 113.9375 98.0625 114.425781 98.269531 C 114.914062 98.476562 115.378906 98.730469 115.816406 99.027344 C 116.253906 99.328125 116.660156 99.667969 117.03125 100.046875 C 117.398438 100.429688 117.726562 100.84375 118.015625 101.289062 C 118.304688 101.734375 118.542969 102.203125 118.738281 102.699219 C 118.929688 103.195312 119.074219 103.703125 119.164062 104.226562 C 119.253906 104.75 119.292969 105.273438 119.28125 105.804688 L 119.28125 107.15625 C 119.28125 107.679688 119.230469 108.195312 119.128906 108.710938 C 119.03125 109.222656 118.878906 109.71875 118.679688 110.203125 C 118.480469 110.6875 118.238281 111.144531 117.949219 111.578125 C 117.660156 112.015625 117.328125 112.417969 116.960938 112.785156 C 116.59375 113.15625 116.191406 113.484375 115.757812 113.777344 C 115.324219 114.066406 114.863281 114.3125 114.382812 114.511719 C 113.902344 114.714844 113.402344 114.863281 112.890625 114.964844 C 112.378906 115.070312 111.863281 115.121094 111.339844 115.121094 Z M 111.339844 115.121094 " fill-opacity="1" fill-rule="nonzero"/><path fill="#ffffff" d="M 93.082031 106.296875 C 93.082031 113.050781 88.589844 116.078125 81.847656 116.078125 C 75.105469 116.078125 69.636719 112.5625 69.636719 105.8125 C 69.640625 105.011719 69.71875 104.214844 69.878906 103.429688 C 70.035156 102.644531 70.269531 101.882812 70.574219 101.144531 C 70.882812 100.402344 71.261719 99.699219 71.707031 99.035156 C 72.152344 98.367188 72.65625 97.753906 73.222656 97.1875 C 73.789062 96.621094 74.40625 96.113281 75.074219 95.671875 C 75.738281 95.226562 76.441406 94.847656 77.179688 94.542969 C 77.921875 94.238281 78.683594 94.003906 79.46875 93.847656 C 80.253906 93.691406 81.046875 93.613281 81.847656 93.613281 C 88.589844 93.613281 93.082031 99.546875 93.082031 106.296875 Z M 93.082031 106.296875 " fill-opacity="1" fill-rule="nonzero"/><path fill="#f69cab" d="M 92.402344 106.296875 C 92.402344 108.363281 91.957031 110.488281 90.628906 112.128906 C 89.304688 113.65625 87.652344 114.613281 85.671875 115.003906 C 81.496094 115.972656 76.199219 115.4375 73 112.375 C 69.589844 109.125 69.695312 103.648438 72.019531 99.8125 C 74.46875 95.78125 79.460938 93.441406 84.140625 94.507812 C 89.496094 95.738281 92.402344 101.125 92.460938 106.296875 C 92.5 106.441406 92.582031 106.558594 92.703125 106.648438 C 92.824219 106.738281 92.960938 106.785156 93.109375 106.785156 C 93.261719 106.785156 93.394531 106.738281 93.515625 106.648438 C 93.636719 106.558594 93.71875 106.441406 93.757812 106.296875 C 93.722656 101.101562 91.09375 95.785156 86.105469 93.742188 C 81.121094 91.695312 75.269531 93.523438 71.945312 97.554688 C 68.730469 101.460938 67.710938 107.675781 70.84375 111.953125 C 73.871094 116.125 79.539062 117.214844 84.382812 116.597656 C 86.882812 116.277344 89.402344 115.40625 91.191406 113.558594 C 93.050781 111.613281 93.757812 108.949219 93.757812 106.296875 C 93.757812 106.109375 93.695312 105.949219 93.5625 105.816406 C 93.429688 105.683594 93.269531 105.617188 93.082031 105.617188 C 92.894531 105.617188 92.734375 105.683594 92.601562 105.816406 C 92.46875 105.949219 92.402344 106.109375 92.402344 106.296875 Z M 92.402344 106.296875 " fill-opacity="1" fill-rule="nonzero"/><path fill="#000000" d="M 83.351562 114.214844 C 83.871094 114.214844 84.386719 114.164062 84.898438 114.0625 C 85.410156 113.960938 85.902344 113.8125 86.382812 113.613281 C 86.867188 113.414062 87.324219 113.171875 87.753906 112.882812 C 88.1875 112.59375 88.589844 112.265625 88.957031 111.898438 C 89.328125 111.53125 89.65625 111.128906 89.945312 110.699219 C 90.238281 110.265625 90.480469 109.808594 90.683594 109.328125 C 90.882812 108.847656 91.035156 108.351562 91.136719 107.84375 C 91.242188 107.332031 91.292969 106.816406 91.296875 106.296875 L 91.296875 104.917969 C 91.296875 104.394531 91.246094 103.878906 91.144531 103.367188 C 91.042969 102.855469 90.890625 102.359375 90.691406 101.875 C 90.492188 101.394531 90.246094 100.9375 89.957031 100.503906 C 89.667969 100.066406 89.335938 99.667969 88.96875 99.296875 C 88.597656 98.929688 88.199219 98.597656 87.765625 98.308594 C 87.332031 98.019531 86.875 97.773438 86.390625 97.574219 C 85.910156 97.375 85.414062 97.226562 84.902344 97.121094 C 84.390625 97.019531 83.875 96.96875 83.351562 96.96875 C 82.832031 96.96875 82.3125 97.019531 81.800781 97.121094 C 81.289062 97.226562 80.792969 97.375 80.3125 97.574219 C 79.832031 97.773438 79.371094 98.019531 78.9375 98.308594 C 78.503906 98.597656 78.105469 98.929688 77.734375 99.296875 C 77.367188 99.667969 77.039062 100.066406 76.746094 100.503906 C 76.457031 100.9375 76.210938 101.394531 76.011719 101.875 C 75.8125 102.359375 75.664062 102.855469 75.558594 103.367188 C 75.457031 103.878906 75.40625 104.394531 75.40625 104.917969 L 75.40625 106.296875 C 75.410156 106.816406 75.460938 107.332031 75.566406 107.84375 C 75.667969 108.351562 75.820312 108.847656 76.019531 109.328125 C 76.222656 109.808594 76.46875 110.265625 76.757812 110.699219 C 77.046875 111.128906 77.378906 111.53125 77.746094 111.898438 C 78.113281 112.265625 78.515625 112.59375 78.949219 112.882812 C 79.382812 113.171875 79.839844 113.414062 80.320312 113.613281 C 80.800781 113.8125 81.296875 113.960938 81.804688 114.0625 C 82.316406 114.164062 82.832031 114.214844 83.351562 114.214844 Z M 83.351562 114.214844 " fill-opacity="1" fill-rule="nonzero"/><path fill="#000000" d="M 102.863281 123.03125 C 102.863281 123.507812 102.816406 123.976562 102.722656 124.441406 C 102.628906 124.902344 102.492188 125.355469 102.3125 125.792969 C 102.132812 126.230469 101.910156 126.644531 101.648438 127.039062 C 101.382812 127.433594 101.085938 127.796875 100.75 128.132812 C 100.417969 128.46875 100.050781 128.765625 99.660156 129.03125 C 99.265625 129.292969 98.851562 129.515625 98.414062 129.695312 C 97.976562 129.878906 97.523438 130.015625 97.0625 130.105469 C 96.597656 130.199219 96.128906 130.246094 95.65625 130.246094 C 95.183594 130.246094 94.714844 130.199219 94.25 130.105469 C 93.785156 130.015625 93.335938 129.878906 92.898438 129.695312 C 92.460938 129.515625 92.042969 129.292969 91.652344 129.03125 C 91.257812 128.765625 90.894531 128.46875 90.558594 128.132812 C 90.222656 127.796875 89.925781 127.433594 89.664062 127.039062 C 89.398438 126.644531 89.179688 126.230469 88.996094 125.792969 C 88.816406 125.355469 88.679688 124.902344 88.585938 124.441406 C 88.496094 123.976562 88.449219 123.507812 88.449219 123.03125 C 88.449219 119.050781 91.675781 121.835938 95.65625 121.835938 C 99.632812 121.835938 102.863281 119.050781 102.863281 123.03125 Z M 102.863281 123.03125 " fill-opacity="1" fill-rule="nonzero"/><path fill="#e58399" d="M 81.433594 120.632812 C 81.433594 122.625 78.972656 124.234375 75.925781 124.234375 C 72.878906 124.234375 70.414062 122.625 70.414062 120.632812 C 70.414062 118.644531 72.878906 117.027344 75.925781 117.027344 C 78.972656 117.027344 81.433594 118.636719 81.433594 120.632812 Z M 81.433594 120.632812 " fill-opacity="1" fill-rule="nonzero"/><path fill="#e58399" d="M 117.449219 121.835938 C 117.449219 123.828125 114.988281 125.4375 111.941406 125.4375 C 108.894531 125.4375 106.433594 123.828125 106.433594 121.835938 C 106.433594 119.84375 108.890625 118.230469 111.941406 118.230469 C 114.992188 118.230469 117.449219 119.839844 117.449219 121.835938 Z M 117.449219 121.835938 " fill-opacity="1" fill-rule="nonzero"/><path fill="#e58399" d="M 60.488281 150.058594 C 62.960938 151.648438 65.847656 152.726562 68.609375 153.671875 C 76.023438 156.117188 83.632812 157.3125 91.441406 157.265625 C 97.679688 157.246094 103.851562 156.597656 109.957031 155.3125 C 110.8125 155.144531 110.449219 153.835938 109.601562 154.011719 C 99.835938 156.015625 89.699219 156.582031 79.847656 155.019531 C 74.242188 154.203125 68.863281 152.609375 63.714844 150.242188 C 62.847656 149.84375 62.003906 149.398438 61.191406 148.894531 C 60.4375 148.425781 59.753906 149.59375 60.488281 150.058594 Z M 60.488281 150.058594 " fill-opacity="1" fill-rule="nonzero"/><path fill="#e58399" d="M 60.488281 186.214844 C 63.429688 187.734375 66.496094 188.953125 69.675781 189.871094 C 76.722656 192.105469 83.929688 192.960938 91.300781 192.4375 C 96.359375 192.023438 101.21875 190.820312 105.878906 188.824219 C 106.679688 188.484375 105.992188 187.3125 105.199219 187.65625 C 92.128906 193.261719 76.921875 191.886719 64.039062 186.402344 C 63.058594 185.984375 62.085938 185.554688 61.148438 185.046875 C 60.40625 184.632812 59.722656 185.800781 60.488281 186.214844 Z M 60.488281 186.214844 " fill-opacity="1" fill-rule="nonzero"/><path fill="#e58399" d="M 71.9375 231.582031 C 74.929688 231.851562 77.917969 231.78125 80.894531 231.367188 C 87.625 230.632812 93.894531 228.523438 99.699219 225.035156 C 103.78125 222.519531 107.300781 219.371094 110.253906 215.589844 C 110.804688 214.914062 109.835938 213.9375 109.300781 214.636719 C 106.867188 217.71875 104.039062 220.386719 100.824219 222.640625 C 97.605469 224.894531 94.132812 226.636719 90.402344 227.871094 C 85.382812 229.554688 80.222656 230.386719 74.929688 230.371094 C 73.929688 230.378906 72.929688 230.332031 71.9375 230.238281 C 71.078125 230.132812 71.082031 231.472656 71.9375 231.582031 Z M 71.9375 231.582031 " fill-opacity="1" fill-rule="nonzero"/><path fill="#e58399" d="M 130.160156 252.285156 C 131.417969 250.597656 132.207031 248.421875 132.851562 246.472656 C 134.703125 240.808594 135.109375 234.699219 134.722656 228.78125 C 134.339844 223.53125 133.441406 218.375 132.035156 213.300781 C 131.980469 213.128906 131.871094 213 131.710938 212.914062 C 131.550781 212.828125 131.386719 212.808594 131.210938 212.855469 C 131.035156 212.90625 130.902344 213.007812 130.808594 213.164062 C 130.714844 213.316406 130.6875 213.484375 130.730469 213.660156 C 132.859375 221.53125 134.066406 229.773438 133.242188 237.925781 C 132.824219 242.003906 131.890625 246.195312 130.023438 249.851562 C 129.738281 250.464844 129.40625 251.046875 129.019531 251.601562 C 128.46875 252.292969 129.648438 252.976562 130.160156 252.285156 Z M 130.160156 252.285156 " fill-opacity="1" fill-rule="nonzero"/><path fill="#e58399" d="M 157.925781 201.335938 C 159.59375 202.765625 161.054688 204.382812 162.304688 206.195312 C 165.410156 210.476562 167.402344 215.226562 168.277344 220.445312 C 168.910156 224.480469 168.851562 228.503906 168.101562 232.519531 C 167.945312 233.371094 169.253906 233.734375 169.40625 232.878906 C 170.054688 229.515625 170.21875 226.125 169.894531 222.714844 C 169.574219 219.304688 168.785156 216.007812 167.523438 212.824219 C 165.890625 208.792969 163.585938 205.195312 160.609375 202.03125 C 160.066406 201.441406 159.492188 200.890625 158.878906 200.375 C 158.222656 199.835938 157.246094 200.789062 157.925781 201.335938 Z M 157.925781 201.335938 " fill-opacity="1" fill-rule="nonzero"/><path fill="#e58399" d="M 192.039062 185.972656 C 193.441406 188.019531 194.707031 190.144531 195.835938 192.351562 C 198.160156 196.765625 200.117188 201.5 200.949219 206.449219 C 201.496094 209.292969 201.429688 212.121094 200.738281 214.933594 C 200.691406 215.113281 200.710938 215.285156 200.804688 215.445312 C 200.898438 215.609375 201.03125 215.714844 201.210938 215.761719 C 201.390625 215.8125 201.5625 215.789062 201.722656 215.699219 C 201.882812 215.609375 201.988281 215.472656 202.039062 215.292969 C 203.421875 210.152344 202.292969 204.632812 200.5625 199.726562 C 199.035156 195.476562 197.082031 191.433594 194.707031 187.59375 C 194.226562 186.804688 193.738281 186.023438 193.207031 185.265625 C 192.679688 184.511719 191.539062 185.257812 192.039062 185.972656 Z M 192.039062 185.972656 " fill-opacity="1" fill-rule="nonzero"/><path fill="#e58399" d="M 230.195312 188.957031 C 231.824219 195.453125 231.988281 201.984375 230.691406 208.554688 C 230.039062 211.390625 228.910156 214.023438 227.296875 216.445312 C 226.804688 217.167969 227.972656 217.839844 228.464844 217.125 C 233.570312 209.597656 233.675781 199.566406 232.019531 190.917969 C 231.867188 190.140625 231.710938 189.363281 231.5 188.597656 C 231.445312 188.425781 231.335938 188.296875 231.175781 188.210938 C 231.015625 188.125 230.851562 188.105469 230.675781 188.152344 C 230.5 188.199219 230.367188 188.300781 230.273438 188.457031 C 230.179688 188.613281 230.152344 188.78125 230.195312 188.957031 Z M 230.195312 188.957031 " fill-opacity="1" fill-rule="nonzero"/><path fill="#e58399" d="M 259.222656 205.847656 C 259.222656 205.878906 259.222656 206.011719 259.222656 205.875 C 259.222656 205.738281 259.222656 206.078125 259.257812 206.15625 C 259.308594 206.574219 259.351562 206.992188 259.382812 207.417969 C 259.503906 208.835938 259.570312 210.265625 259.570312 211.691406 C 259.664062 215.882812 259.085938 219.976562 257.847656 223.976562 C 257.085938 226.398438 255.90625 228.59375 254.308594 230.5625 C 253.757812 231.222656 254.707031 232.1875 255.261719 231.523438 C 260.613281 225.136719 261.394531 215.796875 260.773438 207.808594 C 260.710938 207.039062 260.640625 206.265625 260.523438 205.5 C 260.398438 204.628906 259.097656 205.003906 259.222656 205.847656 Z M 259.222656 205.847656 " fill-opacity="1" fill-rule="nonzero"/><path fill="#e58399" d="M 290.765625 213.957031 C 290.816406 214.015625 290.863281 214.074219 290.902344 214.136719 C 291.113281 214.417969 291.3125 214.6875 291.511719 214.984375 C 292.152344 215.929688 292.730469 216.90625 293.25 217.921875 C 294.878906 220.925781 295.71875 224.136719 295.769531 227.550781 C 295.75 229.890625 295.199219 232.097656 294.117188 234.167969 C 293.71875 234.933594 294.882812 235.625 295.285156 234.847656 C 298.722656 228.230469 296.804688 220.554688 292.875 214.597656 C 292.519531 214.042969 292.132812 213.507812 291.71875 212.992188 C 291.167969 212.328125 290.222656 213.273438 290.765625 213.957031 Z M 290.765625 213.957031 " fill-opacity="1" fill-rule="nonzero"/><path fill="#e58399" d="M 92.171875 133.003906 C 92.972656 133.238281 93.785156 133.398438 94.613281 133.480469 C 96.15625 133.707031 97.644531 133.523438 99.085938 132.929688 C 99.25 132.835938 99.351562 132.699219 99.398438 132.519531 C 99.445312 132.335938 99.421875 132.164062 99.328125 132.003906 C 99.234375 131.847656 99.097656 131.746094 98.917969 131.699219 C 98.742188 131.652344 98.570312 131.671875 98.410156 131.761719 C 97.15625 132.226562 95.871094 132.34375 94.554688 132.113281 C 93.875 132.03125 93.207031 131.890625 92.554688 131.691406 C 91.699219 131.4375 91.347656 132.765625 92.171875 133.003906 Z M 92.171875 133.003906 " fill-opacity="1" fill-rule="nonzero"/></svg>